<svg xmlns="http://www.w3.org/2000/svg" xmlns:xlink="http://www.w3.org/1999/xlink" width="408" zoomAndPan="magnify" viewBox="0 0 306 41.25" height="55" preserveAspectRatio="xMidYMid meet" version="1.0"><defs><filter x="0%" y="0%" width="100%" height="100%" id="cdd8ee2849"><feColorMatrix values="0 0 0 0 1 0 0 0 0 1 0 0 0 0 1 0 0 0 1 0" color-interpolation-filters="sRGB"/></filter><clipPath id="f288077ce0"><path d="M 2.730469 0 L 303 0 L 303 40.511719 L 2.730469 40.511719 Z M 2.730469 0 " clip-rule="nonzero"/></clipPath><mask id="3bcef1d93f"><g filter="url(#cdd8ee2849)"><rect x="-30.6" width="367.2" fill="#000000" y="-4.125" height="49.499999" fill-opacity="0.32"/></g></mask><clipPath id="051b116025"><path d="M 0.730469 0 L 300.53125 0 L 300.53125 40.511719 L 0.730469 40.511719 Z M 0.730469 0 " clip-rule="nonzero"/></clipPath><clipPath id="72f969c6bf"><rect x="0" width="301" y="0" height="41"/></clipPath></defs><g clip-path="url(#f288077ce0)"><g mask="url(#3bcef1d93f)"><g transform="matrix(1, 0, 0, 1, 2, 0.000000000000005234)"><g clip-path="url(#72f969c6bf)"><g clip-path="url(#051b116025)"><path fill="#e2b83a" d="M 67.925781 39.855469 C 67.851562 39.660156 67.855469 39.46875 67.941406 39.277344 C 68.019531 39.148438 70.125 37.460938 72.621094 35.523438 C 86.027344 25.113281 90.101562 23.078125 102.507812 20.578125 L 106.402344 19.796875 L 102.628906 19.648438 C 100.550781 19.566406 98.324219 19.425781 97.675781 19.332031 C 93.601562 18.75 89.980469 18.046875 83.523438 16.578125 L 76.210938 14.914062 L 73.734375 15.429688 C 70.746094 16.046875 68.257812 16.984375 64.179688 19.023438 C 57.949219 22.140625 52.773438 23.828125 47.363281 24.5 C 43.578125 24.96875 28.226562 25.683594 27.949219 25.402344 C 27.519531 24.976562 28.625 24.386719 33.648438 22.371094 C 49.300781 16.078125 55.285156 14.195312 61.820312 13.492188 L 64.652344 13.191406 L 62.292969 13.042969 C 60.996094 12.960938 57.539062 12.882812 54.613281 12.867188 C 49.316406 12.839844 49.28125 12.839844 47.242188 13.53125 C 44.714844 14.382812 42.441406 15.519531 38.472656 17.910156 C 32.886719 21.273438 29.351562 22.671875 19.714844 25.335938 C 14.371094 26.808594 13.425781 26.898438 14.394531 25.832031 C 14.792969 25.390625 18.761719 22.578125 22.550781 20.050781 C 27.066406 17.152344 31.941406 15.101562 37.175781 13.898438 L 39.652344 13.3125 L 37.292969 13.382812 C 35.085938 13.445312 34.65625 13.546875 30.6875 14.941406 C 19.992188 18.691406 19.816406 18.726562 9.929688 18.984375 C 5.519531 19.097656 1.644531 19.222656 1.320312 19.257812 C 0.9375 19.300781 0.730469 19.207031 0.730469 18.988281 C 0.730469 18.554688 11.582031 13.316406 14.214844 12.476562 C 15.460938 12.09375 16.722656 11.777344 18 11.53125 C 20.429688 11.097656 25.5 11.101562 28.507812 11.539062 L 31.75 12.007812 C 32.203125 12.074219 31.195312 11.664062 29.507812 11.101562 C 27.824219 10.539062 24.851562 9.4375 22.90625 8.660156 C 20.957031 7.878906 18.78125 7.050781 18.070312 6.824219 C 16.574219 6.34375 16.070312 6.015625 16.371094 5.710938 C 16.699219 5.386719 32.941406 5.226562 35.847656 5.523438 C 39.160156 5.859375 41.578125 6.582031 46.84375 8.816406 C 53.296875 11.550781 53.46875 11.589844 58.96875 11.757812 C 63.152344 11.886719 66.214844 12.105469 69.136719 12.480469 C 69.652344 12.546875 68.839844 12.234375 67.324219 11.785156 C 62.589844 10.382812 60.132812 9.367188 53.566406 6.101562 C 50.0625 4.355469 46.242188 2.628906 45.074219 2.261719 C 43.375 1.726562 42.953125 1.5 42.953125 1.140625 C 42.953125 0.734375 43.214844 0.671875 45.546875 0.507812 C 50.363281 0.164062 58.800781 0.929688 63.324219 2.117188 C 66.46875 2.945312 68.542969 3.996094 75.621094 8.355469 C 84.375 13.75 88.976562 16.164062 91.988281 16.949219 C 94.636719 17.640625 99.300781 18.101562 103.808594 18.121094 C 108.496094 18.140625 109.816406 17.992188 114.773438 16.90625 L 117.722656 16.257812 L 114.066406 16.109375 C 105.964844 15.78125 100.773438 14.035156 90.835938 8.308594 C 83.3125 3.976562 80.589844 2.71875 76.429688 1.660156 C 74.039062 1.054688 73.5625 0.804688 73.859375 0.324219 C 73.996094 0.105469 74.894531 0.0742188 77.601562 0.195312 C 94.726562 0.960938 101.269531 2.496094 111.945312 8.242188 C 117.640625 11.308594 122.714844 13.222656 126.480469 13.734375 C 127.886719 13.882812 129.292969 13.855469 130.695312 13.644531 C 137.449219 12.835938 143.113281 13.488281 148.722656 15.710938 L 150.476562 16.40625 L 152.617188 15.59375 C 155.144531 14.640625 157.746094 13.960938 160.414062 13.554688 C 162.660156 13.234375 167.421875 13.273438 170.488281 13.636719 C 173.429688 13.984375 175.0625 13.839844 178.105469 12.957031 C 181.476562 11.976562 184.632812 10.625 189.074219 8.257812 C 191.34375 7.046875 194.074219 5.675781 195.144531 5.210938 C 202.210938 2.125 209.609375 0.8125 223.417969 0.191406 C 226.121094 0.0703125 227.023438 0.101562 227.160156 0.324219 C 227.457031 0.804688 227.003906 1.03125 224.316406 1.742188 C 220.109375 2.851562 217.273438 4.195312 209.121094 8.9375 C 200.597656 13.894531 194.742188 15.789062 186.949219 16.109375 L 183.292969 16.253906 L 185.761719 16.796875 C 191.296875 18.007812 192.339844 18.128906 197.09375 18.117188 C 201.824219 18.105469 206.621094 17.632812 209.09375 16.9375 C 212.46875 15.984375 216.214844 14.007812 225.714844 8.164062 C 234.03125 3.054688 236.441406 2.042969 242.378906 1.179688 C 246.171875 0.625 252.550781 0.300781 255.46875 0.507812 C 257.78125 0.671875 258.066406 0.738281 258.066406 1.128906 C 258.066406 1.480469 257.484375 1.773438 255.234375 2.5625 C 252.296875 3.730469 249.429688 5.039062 246.625 6.5 C 241.046875 9.339844 237.957031 10.578125 232.589844 12.125 C 231.488281 12.441406 231.253906 12.558594 231.882812 12.480469 C 234.847656 12.101562 237.875 11.890625 242.046875 11.761719 C 246.4375 11.625 246.890625 11.570312 248.984375 10.890625 C 250.214844 10.496094 252.480469 9.601562 254.015625 8.910156 C 256.753906 7.605469 259.601562 6.585938 262.546875 5.859375 C 264.207031 5.476562 265.605469 5.421875 274.222656 5.410156 C 279.605469 5.402344 284.203125 5.484375 284.4375 5.59375 C 284.988281 5.851562 284.613281 6.355469 283.707031 6.582031 C 283.355469 6.671875 281.15625 7.492188 278.820312 8.410156 C 276.488281 9.324219 273.195312 10.539062 271.507812 11.101562 C 269.824219 11.664062 268.816406 12.074219 269.269531 12.007812 L 272.511719 11.539062 C 277.46875 10.816406 282.992188 11.1875 286.945312 12.507812 C 288.371094 12.980469 296.964844 16.90625 299.699219 18.328125 C 300.542969 18.769531 300.46875 19.339844 299.578125 19.261719 C 299.191406 19.226562 295.316406 19.105469 290.96875 18.988281 C 285.222656 18.832031 282.585938 18.671875 281.300781 18.390625 C 280.328125 18.179688 276.503906 16.980469 272.808594 15.726562 C 266.304688 13.523438 266.007812 13.445312 263.726562 13.378906 L 261.367188 13.3125 L 263.84375 13.894531 C 268.355469 14.9375 272.625 16.601562 276.652344 18.882812 C 279.328125 20.480469 286.960938 25.898438 286.960938 26.195312 C 286.957031 26.375 286.882812 26.515625 286.742188 26.625 C 286.449219 26.804688 276.945312 24.1875 273.003906 22.839844 C 269.046875 21.488281 266.519531 20.28125 262.195312 17.6875 C 258.285156 15.335938 256.234375 14.320312 253.664062 13.449219 C 251.910156 12.851562 251.691406 12.835938 246.351562 12.859375 C 243.324219 12.871094 239.894531 12.953125 238.726562 13.039062 L 236.601562 13.195312 L 238.253906 13.378906 C 245.730469 14.199219 250.183594 15.546875 265.414062 21.59375 C 272.226562 24.300781 273.847656 25.132812 272.972656 25.46875 C 272.425781 25.675781 256.878906 24.894531 253.65625 24.496094 C 248.121094 23.808594 244.003906 22.457031 236.503906 18.855469 C 231.972656 16.683594 229.230469 15.699219 226.269531 15.183594 C 224.851562 14.9375 224.523438 14.984375 217.492188 16.582031 C 211.039062 18.042969 207.40625 18.75 203.347656 19.332031 C 202.695312 19.421875 200.46875 19.566406 198.394531 19.648438 L 194.617188 19.792969 L 198.039062 20.457031 C 209.621094 22.703125 214.390625 24.890625 224.691406 32.679688 C 233.292969 39.195312 233.566406 39.433594 233.003906 39.996094 C 232.792969 40.207031 232.519531 40.214844 231.949219 40.035156 C 231.523438 39.898438 229.519531 39.246094 227.492188 38.585938 C 225.464844 37.925781 221.980469 37.011719 219.75 36.550781 C 207.957031 34.121094 204.707031 32.652344 194.261719 25.027344 C 188.097656 20.523438 183.34375 18.035156 178.839844 16.960938 C 172.15625 15.363281 170.171875 15.101562 164.660156 15.101562 C 159.574219 15.097656 159.417969 15.113281 156.757812 15.839844 C 155.265625 16.246094 153.691406 16.730469 153.253906 16.914062 L 152.464844 17.25 L 155.238281 18.765625 C 158.09375 20.324219 158.726562 20.867188 158.257812 21.339844 C 158.066406 21.53125 157.011719 21.121094 154.328125 19.8125 C 152.316406 18.832031 150.601562 18.027344 150.523438 18.027344 C 150.445312 18.027344 148.726562 18.832031 146.703125 19.816406 C 144.003906 21.125 142.953125 21.535156 142.761719 21.339844 C 142.296875 20.875 142.882812 20.378906 145.789062 18.777344 L 148.605469 17.226562 L 147.824219 16.910156 C 147.394531 16.734375 145.804688 16.253906 144.292969 15.84375 C 141.613281 15.117188 141.421875 15.097656 136.476562 15.09375 C 131.097656 15.089844 129.867188 15.242188 123.03125 16.761719 C 118.058594 17.867188 113.417969 20.207031 107.109375 24.792969 C 96.195312 32.726562 93.160156 34.105469 81.242188 36.554688 C 78.957031 37.023438 75.273438 38.011719 72.890625 38.796875 C 70.550781 39.566406 68.503906 40.199219 68.34375 40.199219 C 68.136719 40.167969 67.996094 40.050781 67.925781 39.855469 Z M 77.625 36.179688 C 78.664062 35.929688 81.230469 35.347656 83.332031 34.890625 C 91.6875 33.0625 96.292969 30.941406 104.042969 25.34375 C 105.730469 24.125 108.0625 22.511719 109.226562 21.757812 C 109.914062 21.34375 110.574219 20.886719 111.199219 20.382812 C 111.121094 20.382812 109.558594 21.074219 107.726562 21.917969 L 101.050781 24.992188 C 99.210938 25.835938 95.84375 27.230469 93.5625 28.089844 C 91.28125 28.945312 87.992188 30.265625 86.246094 31.023438 C 85.1875 31.523438 84.097656 31.953125 82.980469 32.304688 C 82.613281 31.9375 89.820312 28.40625 94.488281 26.667969 C 96.371094 25.96875 100.722656 24.121094 104.160156 22.5625 C 107.597656 21.007812 110.65625 19.65625 110.960938 19.566406 C 111.261719 19.476562 111.457031 19.347656 111.394531 19.285156 C 110.757812 19.363281 110.144531 19.519531 109.550781 19.761719 C 106.746094 20.71875 103.886719 21.476562 100.976562 22.035156 C 93.878906 23.519531 88.800781 25.589844 83.152344 29.300781 C 80.175781 31.257812 71.546875 37.605469 71.28125 38.03125 C 71.214844 38.140625 72.191406 37.871094 73.449219 37.433594 C 74.707031 36.992188 76.585938 36.429688 77.625 36.179688 Z M 229.167969 37.578125 C 228.082031 36.636719 221.777344 31.917969 219.378906 30.253906 C 213.980469 26.375 208.023438 23.746094 201.515625 22.371094 C 198.402344 21.75 195.332031 20.96875 192.300781 20.023438 C 191.671875 19.777344 191.027344 19.601562 190.367188 19.488281 C 190.21875 19.636719 203.910156 25.734375 206.144531 26.523438 C 210.644531 28.105469 217.488281 31.398438 218 32.226562 C 218.101562 32.394531 218.042969 32.441406 217.832031 32.355469 C 217.648438 32.277344 216.152344 31.628906 214.507812 30.914062 C 212.859375 30.195312 210.050781 29.0625 208.257812 28.390625 C 203.789062 26.722656 203.027344 26.398438 196.09375 23.191406 C 192.75 21.648438 189.953125 20.386719 189.875 20.386719 C 190.515625 20.90625 191.191406 21.382812 191.902344 21.808594 C 193.09375 22.59375 195.519531 24.273438 197.292969 25.542969 C 205.273438 31.261719 209.617188 33.179688 219.265625 35.242188 C 221.796875 35.785156 225.191406 36.679688 226.8125 37.234375 C 228.4375 37.789062 229.816406 38.253906 229.878906 38.265625 C 229.945312 38.277344 229.628906 37.972656 229.171875 37.578125 Z M 20.132812 24.253906 C 23.832031 23.25 30.511719 20.898438 32.808594 19.792969 C 33.976562 19.230469 35.941406 18.160156 37.175781 17.414062 C 38.40625 16.667969 40.265625 15.597656 41.300781 15.03125 C 44.757812 13.148438 38.90625 15.03125 31.648438 18.132812 C 27.273438 20 26.050781 20.394531 27.167969 19.574219 C 27.917969 19.023438 31.902344 17.082031 34.5625 15.972656 C 37.25 14.855469 36.691406 14.839844 33.28125 15.9375 C 30.015625 16.988281 25.382812 19.382812 21.238281 22.152344 C 17.449219 24.691406 16.632812 25.304688 17.417969 25.027344 C 17.648438 24.945312 18.867188 24.597656 20.132812 24.253906 Z M 283.894531 25 C 283.894531 24.699219 275.363281 19.277344 273.160156 18.179688 C 270.503906 16.902344 267.75 15.871094 264.90625 15.089844 C 263.816406 14.832031 264.195312 15.027344 267.382812 16.367188 C 270.609375 17.726562 274.222656 19.632812 274.222656 19.980469 C 274.222656 20.101562 274.089844 20.144531 273.925781 20.078125 C 273.765625 20.011719 271.375 18.992188 268.613281 17.816406 C 264.226562 15.949219 258.847656 14.007812 258.085938 14.019531 C 257.945312 14.023438 258.722656 14.503906 259.820312 15.09375 C 260.917969 15.679688 262.6875 16.691406 263.753906 17.335938 C 267.996094 19.898438 273.128906 21.992188 280.472656 24.15625 C 283.730469 25.117188 283.890625 25.15625 283.890625 25 Z M 34.578125 24.40625 C 36.332031 24.277344 38.929688 24.109375 40.359375 24.03125 C 49.4375 23.535156 54.515625 22.242188 62.71875 18.351562 C 67.238281 16.207031 68.746094 15.59375 71.140625 14.921875 L 72.671875 14.492188 L 70.550781 14.613281 C 66.1875 14.859375 61.871094 15.871094 53.921875 18.5 C 51.132812 19.421875 48.714844 20.234375 48.554688 20.300781 C 48.390625 20.367188 48.257812 20.320312 48.257812 20.191406 C 48.257812 19.710938 58.738281 15.867188 63.121094 14.746094 C 65.378906 14.167969 64.414062 14.117188 60.59375 14.617188 C 55.277344 15.308594 51.882812 16.34375 39.652344 20.980469 C 30.933594 24.289062 29.425781 24.914062 30.570312 24.753906 C 31.023438 24.6875 32.828125 24.53125 34.578125 24.40625 Z M 270.46875 24.5 C 267.800781 23.339844 254.765625 18.453125 250.988281 17.199219 C 246.3125 15.640625 243.242188 14.910156 239.664062 14.5 C 236.449219 14.128906 235.867188 14.210938 237.894531 14.738281 C 240.0625 15.304688 243.84375 16.546875 247.921875 18.03125 C 251.4375 19.3125 252.757812 19.910156 252.757812 20.210938 C 252.757812 20.328125 252.625 20.367188 252.460938 20.300781 C 252.300781 20.230469 249.882812 19.421875 247.09375 18.5 C 239.144531 15.867188 234.828125 14.859375 230.464844 14.609375 L 228.34375 14.488281 L 229.980469 14.945312 C 232.394531 15.617188 233.324219 15.996094 238.148438 18.28125 C 246.90625 22.429688 251.363281 23.5 262.664062 24.167969 C 265.0625 24.308594 267.820312 24.511719 268.796875 24.613281 C 271.335938 24.882812 271.355469 24.882812 270.46875 24.496094 Z M 17.164062 17.660156 C 19.871094 17.28125 23.226562 16.355469 28.09375 14.640625 L 31.160156 13.558594 L 26.324219 13.675781 C 23.664062 13.738281 20.601562 13.847656 19.519531 13.917969 C 18.246094 14 17.605469 13.960938 17.695312 13.808594 C 17.96875 13.367188 20.320312 13.09375 25.378906 12.921875 C 29.773438 12.769531 30.261719 12.71875 29.035156 12.527344 C 28.257812 12.40625 25.65625 12.292969 23.257812 12.277344 C 19.457031 12.253906 18.625 12.320312 16.820312 12.777344 C 14.496094 13.367188 11.113281 14.710938 6.773438 16.761719 L 3.855469 18.144531 L 9.253906 18.078125 C 12.367188 18.039062 15.710938 17.863281 17.164062 17.660156 Z M 296.511719 17.855469 C 294.898438 16.976562 288.628906 14.191406 286.84375 13.558594 C 283.621094 12.421875 280.585938 12.03125 276.46875 12.234375 C 274.519531 12.328125 272.394531 12.488281 271.746094 12.589844 C 270.601562 12.769531 270.625 12.777344 272.453125 12.820312 C 275.933594 12.902344 282.355469 13.285156 282.890625 13.445312 C 284.078125 13.796875 283.320312 14.03125 281.355469 13.914062 C 280.222656 13.847656 277.171875 13.746094 274.574219 13.6875 L 269.859375 13.578125 L 275.046875 15.316406 C 281.925781 17.621094 283.179688 17.84375 290.261719 18.027344 C 293.441406 18.109375 296.304688 18.195312 296.628906 18.210938 C 297.203125 18.246094 297.199219 18.234375 296.511719 17.859375 Z M 119.609375 14.488281 C 120.050781 14.296875 120.050781 14.285156 119.636719 14.269531 C 118.632812 14.230469 113.523438 12.960938 110.65625 12.035156 C 106.402344 10.660156 94.996094 6.128906 95.578125 6.046875 C 95.835938 6.007812 97.742188 6.574219 99.8125 7.308594 C 112.101562 11.667969 118.039062 13.472656 121.496094 13.894531 C 122.472656 14.015625 122.214844 13.878906 119.972656 13.09375 C 118.488281 12.578125 114.136719 10.617188 110.304688 8.738281 C 102.699219 5.015625 101.78125 4.640625 97.867188 3.628906 C 92.6875 2.351562 87.4375 1.609375 82.105469 1.40625 L 79.511719 1.269531 L 80.925781 1.832031 C 84.5625 3.445312 88.101562 5.25 91.542969 7.25 C 96.582031 10.09375 99.640625 11.519531 103.332031 12.730469 C 105.945312 13.585938 107.503906 13.929688 111.707031 14.570312 C 112.890625 14.75 119.152344 14.6875 119.609375 14.488281 Z M 191.378906 14.261719 C 196.941406 13.441406 202.195312 11.390625 209.949219 7.011719 C 213.230469 5.09375 216.609375 3.367188 220.089844 1.835938 L 221.503906 1.277344 L 218.792969 1.414062 C 212.089844 1.753906 205.003906 2.914062 200.257812 4.457031 C 198.6875 4.96875 194.960938 6.632812 190.710938 8.722656 C 186.878906 10.609375 182.527344 12.574219 181.042969 13.097656 C 178.78125 13.886719 178.53125 14.015625 179.519531 13.902344 C 182.867188 13.507812 188.941406 11.660156 201.203125 7.3125 C 207.214844 5.179688 206.476562 5.902344 200.039062 8.453125 C 191.347656 11.890625 186.144531 13.542969 182.070312 14.15625 C 180.171875 14.441406 181.527344 14.691406 185.0625 14.707031 C 187.175781 14.710938 189.28125 14.5625 191.378906 14.261719 Z M 80.554688 13.921875 C 80.359375 13.738281 65.527344 7.457031 62.648438 6.335938 C 59.355469 5.058594 59.453125 5.105469 59.640625 4.917969 C 60.015625 4.539062 69 7.785156 75.03125 10.476562 C 78.578125 12.058594 81.515625 13.308594 81.691406 13.308594 C 81.75 13.308594 80.171875 12.316406 78.179688 11.105469 C 76.1875 9.894531 73.605469 8.292969 72.4375 7.546875 C 69.792969 5.875 67 4.492188 64.0625 3.410156 C 60.683594 2.320312 54.414062 1.515625 49.355469 1.519531 L 46.253906 1.519531 L 48.914062 2.679688 C 50.378906 3.316406 52.871094 4.519531 54.457031 5.355469 C 60.460938 8.511719 64.441406 9.972656 73.261719 12.246094 C 79.550781 13.867188 80.796875 14.152344 80.554688 13.921875 Z M 227.230469 12.375 C 235.332031 10.347656 240.058594 8.667969 245.445312 5.914062 C 247.714844 4.75 250.742188 3.289062 252.167969 2.660156 L 254.761719 1.519531 L 251.460938 1.515625 C 245.84375 1.511719 239.691406 2.429688 235.8125 3.847656 C 233.304688 4.761719 231.414062 5.785156 226.058594 9.132812 C 223.683594 10.617188 221.238281 12.117188 220.621094 12.472656 C 220.222656 12.679688 219.851562 12.921875 219.5 13.199219 C 219.5 13.304688 221.992188 12.265625 225.160156 10.839844 C 231.816406 7.847656 240.980469 4.515625 241.398438 4.9375 C 241.570312 5.109375 241.59375 5.101562 237.78125 6.582031 C 235.835938 7.339844 232.226562 8.832031 229.761719 9.902344 C 227.292969 10.96875 224.21875 12.289062 222.921875 12.839844 C 220.609375 13.8125 220.199219 14.019531 220.527344 14.019531 C 220.617188 14.019531 223.636719 13.28125 227.230469 12.378906 Z M 48.828125 11.894531 C 49.855469 11.894531 50.640625 11.835938 50.570312 11.765625 C 49.328125 11.472656 48.078125 11.238281 46.816406 11.074219 C 42.609375 10.417969 30.804688 7.851562 30.804688 7.589844 C 30.804688 7.28125 31.664062 7.394531 36.0625 8.261719 C 40.894531 9.21875 48.101562 10.464844 48.210938 10.363281 C 48.316406 10.261719 43.433594 8.238281 41.773438 7.6875 C 38.214844 6.507812 37.289062 6.414062 28.09375 6.324219 C 21.910156 6.261719 19.539062 6.3125 19.953125 6.484375 C 23.074219 7.78125 29.277344 9.929688 31.910156 10.625 C 36.910156 11.949219 38.394531 12.132812 42.953125 12.007812 C 45.15625 11.945312 47.800781 11.894531 48.828125 11.894531 Z M 263.296875 11.878906 C 267.375 11.320312 272.738281 9.730469 279.527344 7.0625 L 281.652344 6.226562 L 272.925781 6.316406 C 263.726562 6.414062 263 6.488281 259.367188 7.675781 C 257.730469 8.210938 252.710938 10.273438 252.8125 10.371094 C 252.917969 10.464844 260.328125 9.171875 264.953125 8.257812 C 269.351562 7.386719 270.210938 7.277344 270.210938 7.585938 C 270.210938 7.832031 258.699219 10.378906 254.996094 10.949219 C 250.003906 11.71875 249.941406 11.757812 253.582031 11.898438 C 259.59375 12.132812 261.429688 12.128906 263.292969 11.875 Z M 263.296875 11.878906 " fill-opacity="1" fill-rule="nonzero"/></g></g></g></g></g></svg>