<svg xmlns="http://www.w3.org/2000/svg" xmlns:xlink="http://www.w3.org/1999/xlink" width="151" zoomAndPan="magnify" viewBox="0 0 113.25 117.749996" height="157" preserveAspectRatio="xMidYMid meet" version="1.0"><defs><g/><clipPath id="3804fa5216"><rect x="0" width="44" y="0" height="89"/></clipPath></defs><g transform="matrix(1, 0, 0, 1, 33, 14)"><g clip-path="url(#3804fa5216)"><g fill="#687159" fill-opacity="1"><g transform="translate(1.483829, 66.956311)"><g><path d="M 0.359375 0 C 0.171875 0 0.078125 -0.140625 0.078125 -0.421875 C 0.078125 -0.710938 0.171875 -0.859375 0.359375 -0.859375 C 1.992188 -0.859375 3.21875 -0.976562 4.03125 -1.21875 C 4.851562 -1.46875 5.46875 -1.941406 5.875 -2.640625 C 6.289062 -3.335938 6.644531 -4.40625 6.9375 -5.84375 L 9.453125 -19.71875 C 9.648438 -20.769531 9.75 -21.414062 9.75 -21.65625 C 9.75 -22.519531 9.363281 -22.953125 8.59375 -22.953125 C 7.675781 -22.953125 6.039062 -22.398438 3.6875 -21.296875 L 3.53125 -21.234375 C 3.394531 -21.234375 3.289062 -21.363281 3.21875 -21.625 C 3.144531 -21.882812 3.179688 -22.085938 3.328125 -22.234375 L 16.75 -28.8125 C 16.84375 -28.90625 16.960938 -28.90625 17.109375 -28.8125 C 17.253906 -28.71875 17.300781 -28.597656 17.25 -28.453125 L 13.140625 -5.84375 C 12.992188 -4.976562 12.921875 -4.257812 12.921875 -3.6875 C 12.921875 -2.53125 13.28125 -1.769531 14 -1.40625 C 14.726562 -1.039062 16.101562 -0.859375 18.125 -0.859375 C 18.3125 -0.859375 18.40625 -0.710938 18.40625 -0.421875 C 18.40625 -0.140625 18.3125 0 18.125 0 C 16.582031 0 15.351562 -0.0234375 14.4375 -0.078125 L 9.3125 -0.140625 L 4.109375 -0.078125 C 3.203125 -0.0234375 1.953125 0 0.359375 0 Z M 0.359375 0 "/></g></g></g><g fill="#687159" fill-opacity="1"><g transform="translate(13.828909, 66.956311)"><g><path d="M -1.515625 19.859375 C -1.710938 19.898438 -1.84375 19.789062 -1.90625 19.53125 C -1.976562 19.269531 -1.945312 19.085938 -1.8125 18.984375 C 2.28125 16.960938 5.960938 14.21875 9.234375 10.75 C 12.515625 7.289062 15.148438 3.585938 17.140625 -0.359375 C 19.140625 -4.304688 20.429688 -8.035156 21.015625 -11.546875 C 21.253906 -13.140625 21.375 -14.5625 21.375 -15.8125 C 21.375 -19.039062 20.78125 -21.710938 19.59375 -23.828125 C 18.414062 -25.941406 16.742188 -27 14.578125 -27 C 11.648438 -27 9.847656 -24.785156 9.171875 -20.359375 C 9.078125 -19.296875 9.03125 -18.523438 9.03125 -18.046875 C 9.03125 -15.734375 9.460938 -13.816406 10.328125 -12.296875 C 11.191406 -10.785156 12.394531 -10.03125 13.9375 -10.03125 C 14.894531 -10.03125 16.070312 -10.515625 17.46875 -11.484375 C 17.519531 -11.523438 17.59375 -11.546875 17.6875 -11.546875 C 17.832031 -11.546875 17.953125 -11.484375 18.046875 -11.359375 C 18.140625 -11.242188 18.164062 -11.140625 18.125 -11.046875 C 16.101562 -8.691406 13.597656 -7.515625 10.609375 -7.515625 C 7.816406 -7.515625 5.648438 -8.425781 4.109375 -10.25 C 2.578125 -12.082031 1.8125 -14.203125 1.8125 -16.609375 C 1.8125 -18.816406 2.507812 -20.859375 3.90625 -22.734375 C 5.300781 -24.617188 7.148438 -26.101562 9.453125 -27.1875 C 11.765625 -28.269531 14.222656 -28.8125 16.828125 -28.8125 C 20.335938 -28.8125 23.140625 -27.773438 25.234375 -25.703125 C 27.328125 -23.628906 28.375 -20.691406 28.375 -16.890625 C 28.375 -15.785156 28.253906 -14.441406 28.015625 -12.859375 C 27.296875 -8.523438 25.570312 -4.179688 22.84375 0.171875 C 20.125 4.535156 16.660156 8.460938 12.453125 11.953125 C 8.242188 15.441406 3.585938 18.078125 -1.515625 19.859375 Z M -1.515625 19.859375 "/></g></g></g></g></g></svg>