<svg xmlns="http://www.w3.org/2000/svg" xmlns:xlink="http://www.w3.org/1999/xlink" width="34" zoomAndPan="magnify" viewBox="0 0 25.5 30.75" height="41" preserveAspectRatio="xMidYMid meet" version="1.0"><defs><filter x="0%" y="0%" width="100%" height="100%" id="620130c362"><feColorMatrix values="0 0 0 0 1 0 0 0 0 1 0 0 0 0 1 0 0 0 1 0" color-interpolation-filters="sRGB"/></filter><clipPath id="4de30e7c1a"><path d="M 0 0.171875 L 25 0.171875 L 25 30 L 0 30 Z M 0 0.171875 " clip-rule="nonzero"/></clipPath><mask id="5f09d02a64"><g filter="url(#620130c362)"><rect x="-2.55" width="30.6" fill="#000000" y="-3.075" height="36.9" fill-opacity="0.67"/></g></mask><clipPath id="7fbc244314"><path d="M 0.234375 0.171875 L 24.949219 0.171875 L 24.949219 29.832031 L 0.234375 29.832031 Z M 0.234375 0.171875 " clip-rule="nonzero"/></clipPath><clipPath id="7a5559c65b"><path d="M 9 0.171875 L 14 0.171875 L 14 2 L 9 2 Z M 9 0.171875 " clip-rule="nonzero"/></clipPath><clipPath id="2e30df00e3"><rect x="0" width="25" y="0" height="30"/></clipPath></defs><g clip-path="url(#4de30e7c1a)"><g mask="url(#5f09d02a64)"><g transform="matrix(1, 0, 0, 1, 0, -0.000000000000000361)"><g clip-path="url(#2e30df00e3)"><path fill="#e2b83a" d="M 22.53125 27.433594 C 23.464844 28.128906 18.402344 28.804688 19.027344 28.058594 C 18.246094 29.019531 23.679688 28.320312 22.53125 27.433594 Z M 22.53125 27.433594 " fill-opacity="1" fill-rule="nonzero"/><g clip-path="url(#7fbc244314)"><path fill="#e2b83a" d="M 24.777344 27.652344 C 24.570312 27.113281 23.902344 27.304688 23.457031 27.253906 C 21.601562 27.226562 20.839844 25.230469 20.65625 23.652344 C 20.328125 21.878906 19.957031 19.941406 19.660156 18.171875 C 18.875 14.296875 21.296875 16.039062 21.273438 11.203125 C 21.121094 8.089844 20.050781 5.105469 19.070312 2.167969 C 18.882812 1.699219 18.730469 1.160156 18.457031 0.753906 C 17.667969 0.570312 16.832031 0.84375 16.054688 1.003906 C 16.820312 0.914062 17.644531 0.695312 18.402344 0.878906 C 17.398438 1.503906 16.125 1.628906 14.972656 1.828125 C 12.398438 2.113281 15.273438 1.167969 16.054688 1 C 12.816406 1.707031 14.820312 1.714844 11.511719 0.863281 C 12.21875 1.105469 12.925781 1.335938 13.617188 1.617188 C 12.167969 1.277344 10.738281 0.859375 9.332031 0.367188 C 10.066406 0.503906 10.789062 0.691406 11.511719 0.863281 C 10.707031 0.605469 9.898438 0.324219 9.0625 0.191406 C 9 0.199219 8.945312 0.171875 8.914062 0.25 C 7.59375 3.285156 6.355469 6.410156 5.738281 9.679688 C 4.777344 13.351562 7.503906 15.097656 6.285156 18.582031 C 5.609375 20.355469 4.753906 26.433594 2.511719 26.378906 C 2.003906 26.496094 0.648438 26.234375 0.402344 26.574219 C 0.0195312 27.402344 1.90625 27.644531 2.414062 27.898438 C 3.984375 28.421875 5.59375 28.894531 7.242188 29.070312 C 7.871094 29.1875 8.429688 28.773438 7.773438 28.273438 C 7.066406 27.933594 6.378906 27.566406 5.851562 26.976562 C 5.085938 24.945312 6.007812 22.578125 6.597656 20.566406 C 7.253906 18.933594 7.453125 17.003906 8.628906 15.648438 C 9.480469 14.835938 10.652344 14.21875 11.230469 13.125 C 12.8125 10.304688 13.160156 7 13.707031 3.863281 C 13.960938 7.179688 14.03125 12.34375 16.511719 14.761719 C 17.867188 15.863281 18.226562 16.019531 18.566406 17.828125 C 18.964844 19.738281 19.207031 21.699219 19.574219 23.621094 C 19.753906 24.6875 19.957031 25.8125 19.667969 26.871094 C 19.402344 27.746094 18.472656 28.136719 17.703125 28.472656 C 17.460938 28.535156 17.183594 28.578125 17.0625 28.835938 C 17.050781 30.066406 19.476562 29.386719 20.246094 29.375 C 21.140625 29.21875 24.96875 28.871094 24.777344 27.652344 Z M 13.453125 4.367188 C 12.742188 7.535156 12.367188 12.042969 9.828125 14.289062 C 9.105469 14.847656 8.3125 15.371094 7.839844 16.1875 C 7.226562 17.574219 6.839844 19.054688 6.371094 20.5 C 5.726562 22.585938 5.140625 24.824219 5.71875 26.992188 C 6.203125 27.617188 6.871094 28.0625 7.566406 28.414062 C 7.714844 28.488281 7.824219 28.5625 7.816406 28.726562 C 7.453125 29.003906 6.421875 28.640625 5.953125 28.578125 C 4.503906 28.269531 3.0625 27.804688 1.648438 27.34375 C 1.402344 27.230469 0.480469 27.050781 0.617188 26.699219 C 1.25 26.546875 2.011719 26.664062 2.671875 26.53125 C 4.984375 25.675781 5.238281 22.433594 6.035156 20.398438 C 7.476562 16.046875 6.890625 16.285156 5.867188 12.167969 C 5.722656 10.457031 6.207031 8.734375 6.628906 7.082031 C 7.289062 4.808594 8.054688 2.554688 8.984375 0.375 C 10.363281 0.984375 11.84375 1.355469 13.308594 1.710938 C 13.488281 1.769531 13.722656 1.710938 13.746094 1.921875 C 13.78125 2.582031 13.597656 3.714844 13.453125 4.367188 Z M 13.980469 5.410156 C 13.835938 4.273438 13.847656 3.128906 13.839844 1.984375 C 15.242188 2.136719 17.304688 1.734375 18.5 0.988281 C 19.277344 2.929688 19.78125 4.984375 20.324219 7.003906 C 19.328125 6.847656 18.304688 6.894531 17.292969 6.898438 C 18.28125 6.941406 19.28125 6.925781 20.257812 7.082031 C 18.28125 7.265625 16.304688 7.265625 14.328125 7.082031 C 15.308594 6.929688 16.304688 6.941406 17.292969 6.898438 C 16.273438 6.929688 15.15625 6.773438 14.179688 7.054688 C 14.105469 6.511719 14.039062 5.960938 13.980469 5.414062 Z M 24.550781 27.859375 C 24.613281 28.648438 15.621094 30.054688 17.539062 28.703125 C 18.570312 28.390625 19.644531 27.671875 19.863281 26.542969 C 20.160156 24.253906 19.410156 21.980469 19.183594 19.707031 C 18.351562 12.050781 15.496094 18.042969 14.191406 7.121094 C 15.691406 7.445312 17.304688 7.292969 18.84375 7.292969 C 19.296875 7.273438 19.753906 7.261719 20.199219 7.191406 C 20.453125 7.070312 20.390625 7.394531 20.460938 7.566406 C 20.957031 9.976562 21.574219 12.960938 19.847656 15.023438 C 19.640625 15.265625 19.390625 15.53125 19.324219 15.859375 C 18.988281 17.878906 19.796875 19.890625 20.085938 21.875 C 20.472656 23.359375 20.5 25.039062 21.445312 26.308594 C 21.953125 26.820312 22.621094 27.261719 23.335938 27.394531 C 23.691406 27.5 24.652344 27.269531 24.550781 27.859375 Z M 24.550781 27.859375 " fill-opacity="1" fill-rule="nonzero"/></g><path fill="#e2b83a" d="M 20.210938 14.21875 C 20.703125 13.664062 20.914062 12.882812 20.878906 12.148438 C 20.890625 14.121094 18.914062 15.441406 17.15625 14.441406 C 16.210938 13.871094 15.773438 12.792969 15.269531 11.851562 C 15.675781 12.851562 16.101562 13.984375 17.066406 14.585938 C 18.03125 15.179688 19.417969 15.039062 20.210938 14.21875 Z M 20.210938 14.21875 " fill-opacity="1" fill-rule="nonzero"/><path fill="#e2b83a" d="M 15.160156 2.160156 C 16.050781 2.074219 16.976562 1.929688 17.757812 1.460938 C 16.660156 1.921875 15.441406 2.109375 14.257812 2.148438 C 14.554688 2.199219 14.859375 2.175781 15.160156 2.160156 Z M 15.160156 2.160156 " fill-opacity="1" fill-rule="nonzero"/><path fill="#e2b83a" d="M 13.03125 5.546875 C 12.085938 5.339844 11.089844 5.425781 10.128906 5.421875 C 11.058594 5.460938 11.996094 5.449219 12.917969 5.601562 C 11.058594 5.785156 9.199219 5.785156 7.34375 5.601562 C 8.261719 5.449219 9.199219 5.460938 10.128906 5.421875 C 9.6875 5.453125 7.25 5.277344 7.207031 5.640625 C 8.621094 5.957031 10.136719 5.816406 11.585938 5.8125 C 11.792969 5.769531 13.207031 5.832031 13.03125 5.546875 Z M 13.03125 5.546875 " fill-opacity="1" fill-rule="nonzero"/><path fill="#e2b83a" d="M 4.921875 27.804688 C 4.316406 27.589844 2.585938 27.261719 2.324219 26.746094 C 2.214844 27.304688 6.945312 28.757812 6.234375 27.613281 C 6.585938 28.257812 5.210938 27.859375 4.921875 27.804688 Z M 4.921875 27.804688 " fill-opacity="1" fill-rule="nonzero"/><path fill="#e2b83a" d="M 5.398438 27.488281 C 4.667969 27.402344 3.746094 27.234375 3.238281 26.699219 C 3.503906 27.238281 4.996094 27.707031 5.539062 27.449219 C 5.496094 27.480469 5.449219 27.496094 5.398438 27.488281 Z M 5.398438 27.488281 " fill-opacity="1" fill-rule="nonzero"/><g clip-path="url(#7a5559c65b)"><path fill="#e2b83a" d="M 11.222656 1.375 C 11.808594 1.550781 12.410156 1.664062 13.019531 1.726562 C 11.835938 1.4375 10.671875 1.101562 9.519531 0.710938 C 10.066406 0.988281 10.632812 1.207031 11.222656 1.375 Z M 11.222656 1.375 " fill-opacity="1" fill-rule="nonzero"/></g><path fill="#e2b83a" d="M 10.859375 12.761719 C 9.84375 14.617188 6.972656 15.152344 6.226562 12.800781 C 5.757812 11.121094 6.238281 9.335938 6.597656 7.675781 C 6.144531 9.558594 5.371094 11.855469 6.519531 13.625 C 7.46875 14.941406 9.429688 14.640625 10.394531 13.503906 C 11.214844 12.644531 11.511719 11.460938 11.851562 10.363281 C 11.554688 11.175781 11.320312 12.019531 10.859375 12.761719 Z M 10.859375 12.761719 " fill-opacity="1" fill-rule="nonzero"/><path fill="#e2b83a" d="M 17.0625 8.585938 C 17.273438 8.675781 17.300781 8.300781 17.078125 8.359375 C 17.027344 8.375 16.996094 8.410156 16.992188 8.464844 C 16.988281 8.519531 17.011719 8.5625 17.0625 8.585938 Z M 17.0625 8.585938 " fill-opacity="1" fill-rule="nonzero"/><path fill="#e2b83a" d="M 16.808594 9.480469 C 16.992188 9.476562 16.945312 9.1875 16.769531 9.242188 C 16.703125 9.261719 16.675781 9.308594 16.683594 9.378906 C 16.695312 9.445312 16.738281 9.480469 16.808594 9.480469 Z M 16.808594 9.480469 " fill-opacity="1" fill-rule="nonzero"/><path fill="#e2b83a" d="M 17.5 9.59375 C 17.640625 9.59375 17.605469 9.367188 17.46875 9.414062 C 17.421875 9.429688 17.402344 9.464844 17.410156 9.515625 C 17.417969 9.566406 17.445312 9.59375 17.5 9.59375 Z M 17.5 9.59375 " fill-opacity="1" fill-rule="nonzero"/><path fill="#e2b83a" d="M 17.296875 10.277344 C 17.335938 10.296875 17.371094 10.292969 17.402344 10.265625 C 17.433594 10.238281 17.441406 10.203125 17.429688 10.164062 C 17.363281 10 17.148438 10.191406 17.296875 10.277344 Z M 17.296875 10.277344 " fill-opacity="1" fill-rule="nonzero"/><path fill="#e2b83a" d="M 18.558594 12.1875 C 18.441406 12.222656 18.503906 12.40625 18.617188 12.363281 C 18.734375 12.320312 18.671875 12.144531 18.558594 12.1875 Z M 18.558594 12.1875 " fill-opacity="1" fill-rule="nonzero"/><path fill="#e2b83a" d="M 18.941406 13.222656 C 18.882812 13.242188 18.863281 13.28125 18.882812 13.34375 C 18.902344 13.402344 18.945312 13.421875 19.003906 13.402344 C 19.0625 13.378906 19.082031 13.339844 19.0625 13.28125 C 19.042969 13.222656 19 13.203125 18.941406 13.222656 Z M 18.941406 13.222656 " fill-opacity="1" fill-rule="nonzero"/><path fill="#e2b83a" d="M 18.699219 14.136719 C 18.652344 14.113281 18.617188 14.125 18.59375 14.171875 C 18.570312 14.21875 18.582031 14.253906 18.628906 14.277344 C 18.675781 14.300781 18.710938 14.289062 18.734375 14.242188 C 18.757812 14.195312 18.746094 14.160156 18.699219 14.136719 Z M 18.699219 14.136719 " fill-opacity="1" fill-rule="nonzero"/><path fill="#e2b83a" d="M 18.964844 11.445312 C 19.109375 11.445312 19.074219 11.21875 18.9375 11.261719 C 18.890625 11.28125 18.871094 11.316406 18.878906 11.363281 C 18.886719 11.414062 18.917969 11.441406 18.964844 11.445312 Z M 18.964844 11.445312 " fill-opacity="1" fill-rule="nonzero"/><path fill="#e2b83a" d="M 16.898438 10.402344 C 16.792969 10.339844 16.707031 10.515625 16.816406 10.566406 C 16.925781 10.617188 17.007812 10.449219 16.898438 10.402344 Z M 16.898438 10.402344 " fill-opacity="1" fill-rule="nonzero"/><path fill="#e2b83a" d="M 16.992188 11.304688 C 17.03125 11.320312 17.0625 11.316406 17.09375 11.289062 C 17.125 11.261719 17.136719 11.230469 17.125 11.191406 C 17.058594 11.027344 16.84375 11.21875 16.992188 11.304688 Z M 16.992188 11.304688 " fill-opacity="1" fill-rule="nonzero"/><path fill="#e2b83a" d="M 17.539062 11.816406 C 17.402344 11.75 17.347656 11.992188 17.496094 11.992188 C 17.546875 11.992188 17.578125 11.96875 17.585938 11.921875 C 17.597656 11.875 17.582031 11.839844 17.539062 11.816406 Z M 17.539062 11.816406 " fill-opacity="1" fill-rule="nonzero"/><path fill="#e2b83a" d="M 18.5625 11.417969 C 18.527344 11.300781 18.34375 11.363281 18.386719 11.476562 C 18.40625 11.539062 18.445312 11.558594 18.503906 11.535156 C 18.5625 11.515625 18.582031 11.476562 18.5625 11.417969 Z M 18.5625 11.417969 " fill-opacity="1" fill-rule="nonzero"/><path fill="#e2b83a" d="M 17.742188 13.054688 C 17.90625 13.128906 17.925781 12.835938 17.757812 12.882812 C 17.71875 12.898438 17.695312 12.925781 17.695312 12.964844 C 17.691406 13.003906 17.707031 13.035156 17.742188 13.054688 Z M 17.742188 13.054688 " fill-opacity="1" fill-rule="nonzero"/><path fill="#e2b83a" d="M 18.25 8.644531 C 18.429688 8.644531 18.386719 8.347656 18.210938 8.40625 C 18.078125 8.445312 18.117188 8.648438 18.25 8.644531 Z M 18.25 8.644531 " fill-opacity="1" fill-rule="nonzero"/><path fill="#e2b83a" d="M 17.808594 9.40625 C 17.945312 9.480469 18.058594 9.257812 17.917969 9.191406 C 17.777344 9.121094 17.664062 9.34375 17.808594 9.40625 Z M 17.808594 9.40625 " fill-opacity="1" fill-rule="nonzero"/><path fill="#e2b83a" d="M 18.421875 9.589844 C 18.53125 9.644531 18.617188 9.472656 18.507812 9.421875 C 18.453125 9.398438 18.414062 9.414062 18.386719 9.464844 C 18.359375 9.519531 18.371094 9.5625 18.421875 9.589844 Z M 18.421875 9.589844 " fill-opacity="1" fill-rule="nonzero"/><path fill="#e2b83a" d="M 17.75 10.796875 C 17.785156 10.8125 17.820312 10.808594 17.851562 10.78125 C 17.882812 10.753906 17.890625 10.722656 17.878906 10.683594 C 17.8125 10.519531 17.597656 10.707031 17.75 10.796875 Z M 17.75 10.796875 " fill-opacity="1" fill-rule="nonzero"/><path fill="#e2b83a" d="M 15.738281 8.929688 C 15.882812 8.929688 15.84375 8.703125 15.710938 8.746094 C 15.660156 8.765625 15.640625 8.800781 15.648438 8.851562 C 15.65625 8.902344 15.6875 8.925781 15.738281 8.929688 Z M 15.738281 8.929688 " fill-opacity="1" fill-rule="nonzero"/><path fill="#e2b83a" d="M 18.308594 13.730469 C 18.261719 13.707031 18.226562 13.71875 18.203125 13.765625 C 18.179688 13.8125 18.191406 13.847656 18.238281 13.871094 C 18.285156 13.894531 18.320312 13.882812 18.34375 13.835938 C 18.367188 13.789062 18.355469 13.753906 18.308594 13.730469 Z M 18.308594 13.730469 " fill-opacity="1" fill-rule="nonzero"/><path fill="#e2b83a" d="M 16.335938 9.113281 C 16.371094 9.132812 16.40625 9.128906 16.4375 9.101562 C 16.46875 9.074219 16.480469 9.042969 16.46875 9.003906 C 16.402344 8.839844 16.183594 9.027344 16.335938 9.113281 Z M 16.335938 9.113281 " fill-opacity="1" fill-rule="nonzero"/><path fill="#e2b83a" d="M 18.472656 10.175781 C 18.355469 10.210938 18.417969 10.398438 18.53125 10.355469 C 18.59375 10.335938 18.613281 10.296875 18.589844 10.234375 C 18.570312 10.175781 18.53125 10.15625 18.472656 10.175781 Z M 18.472656 10.175781 " fill-opacity="1" fill-rule="nonzero"/><path fill="#e2b83a" d="M 16.976562 8.992188 C 17.121094 8.992188 17.082031 8.765625 16.949219 8.8125 C 16.898438 8.828125 16.878906 8.863281 16.886719 8.914062 C 16.894531 8.964844 16.925781 8.992188 16.976562 8.992188 Z M 16.976562 8.992188 " fill-opacity="1" fill-rule="nonzero"/><path fill="#e2b83a" d="M 17.96875 12.003906 C 18.007812 12.121094 18.1875 12.058594 18.148438 11.945312 C 18.125 11.890625 18.085938 11.871094 18.03125 11.890625 C 17.972656 11.910156 17.953125 11.949219 17.96875 12.003906 Z M 17.96875 12.003906 " fill-opacity="1" fill-rule="nonzero"/><path fill="#e2b83a" d="M 18.355469 12.449219 C 18.335938 12.390625 18.296875 12.371094 18.234375 12.390625 C 18.175781 12.410156 18.15625 12.449219 18.175781 12.507812 C 18.214844 12.621094 18.394531 12.5625 18.355469 12.449219 Z M 18.355469 12.449219 " fill-opacity="1" fill-rule="nonzero"/><path fill="#e2b83a" d="M 18.664062 13.007812 C 18.699219 13.125 18.878906 13.0625 18.839844 12.945312 C 18.820312 12.886719 18.78125 12.867188 18.722656 12.886719 C 18.664062 12.910156 18.644531 12.949219 18.664062 13.007812 Z M 18.664062 13.007812 " fill-opacity="1" fill-rule="nonzero"/><path fill="#e2b83a" d="M 9.957031 7.59375 C 9.808594 7.542969 9.726562 7.777344 9.878906 7.824219 C 10.035156 7.875 10.105469 7.640625 9.957031 7.59375 Z M 9.957031 7.59375 " fill-opacity="1" fill-rule="nonzero"/><path fill="#e2b83a" d="M 10.34375 8.628906 C 10.398438 8.480469 10.160156 8.402344 10.113281 8.554688 C 10.0625 8.707031 10.296875 8.785156 10.34375 8.628906 Z M 10.34375 8.628906 " fill-opacity="1" fill-rule="nonzero"/><path fill="#e2b83a" d="M 9.566406 8.648438 C 9.507812 8.628906 9.46875 8.648438 9.449219 8.707031 C 9.429688 8.765625 9.449219 8.804688 9.507812 8.824219 C 9.621094 8.867188 9.683594 8.679688 9.566406 8.648438 Z M 9.566406 8.648438 " fill-opacity="1" fill-rule="nonzero"/><path fill="#e2b83a" d="M 9.664062 9.515625 C 9.78125 9.558594 9.839844 9.375 9.726562 9.339844 C 9.667969 9.320312 9.628906 9.339844 9.605469 9.398438 C 9.585938 9.457031 9.605469 9.496094 9.664062 9.515625 Z M 9.664062 9.515625 " fill-opacity="1" fill-rule="nonzero"/><path fill="#e2b83a" d="M 8.359375 11.480469 C 8.320312 11.59375 8.5 11.652344 8.539062 11.542969 C 8.574219 11.429688 8.394531 11.363281 8.359375 11.480469 Z M 8.359375 11.480469 " fill-opacity="1" fill-rule="nonzero"/><path fill="#e2b83a" d="M 7.980469 12.589844 C 8 12.625 8.03125 12.640625 8.070312 12.636719 C 8.113281 12.636719 8.140625 12.613281 8.152344 12.574219 C 8.199219 12.40625 7.910156 12.429688 7.980469 12.589844 Z M 7.980469 12.589844 " fill-opacity="1" fill-rule="nonzero"/><path fill="#e2b83a" d="M 8.394531 13.363281 C 8.347656 13.347656 8.3125 13.363281 8.296875 13.414062 C 8.28125 13.464844 8.296875 13.496094 8.347656 13.511719 C 8.394531 13.53125 8.429688 13.511719 8.445312 13.464844 C 8.460938 13.414062 8.445312 13.382812 8.394531 13.363281 Z M 8.394531 13.363281 " fill-opacity="1" fill-rule="nonzero"/><path fill="#e2b83a" d="M 8.039062 10.671875 C 8.152344 10.714844 8.214844 10.53125 8.097656 10.496094 C 8.042969 10.480469 8.003906 10.5 7.984375 10.554688 C 7.964844 10.613281 7.984375 10.652344 8.039062 10.671875 Z M 8.039062 10.671875 " fill-opacity="1" fill-rule="nonzero"/><path fill="#e2b83a" d="M 10.148438 9.804688 C 10.207031 9.824219 10.242188 9.804688 10.261719 9.746094 C 10.28125 9.691406 10.265625 9.652344 10.210938 9.628906 C 10.09375 9.589844 10.03125 9.773438 10.148438 9.804688 Z M 10.148438 9.804688 " fill-opacity="1" fill-rule="nonzero"/><path fill="#e2b83a" d="M 10.027344 10.367188 C 9.96875 10.347656 9.929688 10.367188 9.910156 10.425781 C 9.890625 10.484375 9.910156 10.523438 9.96875 10.542969 C 10.027344 10.5625 10.066406 10.542969 10.085938 10.484375 C 10.109375 10.425781 10.089844 10.386719 10.027344 10.367188 Z M 10.027344 10.367188 " fill-opacity="1" fill-rule="nonzero"/><path fill="#e2b83a" d="M 9.566406 11.046875 C 9.507812 11.023438 9.46875 11.046875 9.449219 11.105469 C 9.429688 11.164062 9.449219 11.203125 9.507812 11.222656 C 9.566406 11.242188 9.605469 11.222656 9.625 11.164062 C 9.644531 11.105469 9.625 11.066406 9.566406 11.046875 Z M 9.566406 11.046875 " fill-opacity="1" fill-rule="nonzero"/><path fill="#e2b83a" d="M 8.589844 10.59375 C 8.53125 10.574219 8.492188 10.59375 8.46875 10.652344 C 8.449219 10.710938 8.46875 10.75 8.527344 10.769531 C 8.589844 10.789062 8.628906 10.769531 8.648438 10.710938 C 8.667969 10.652344 8.648438 10.613281 8.589844 10.59375 Z M 8.589844 10.59375 " fill-opacity="1" fill-rule="nonzero"/><path fill="#e2b83a" d="M 9.277344 12.117188 C 9.21875 12.097656 9.179688 12.117188 9.160156 12.175781 C 9.140625 12.234375 9.160156 12.273438 9.21875 12.296875 C 9.335938 12.332031 9.394531 12.152344 9.277344 12.117188 Z M 9.277344 12.117188 " fill-opacity="1" fill-rule="nonzero"/><path fill="#e2b83a" d="M 8.824219 7.640625 C 8.675781 7.585938 8.597656 7.824219 8.75 7.871094 C 8.898438 7.921875 8.976562 7.6875 8.824219 7.640625 Z M 8.824219 7.640625 " fill-opacity="1" fill-rule="nonzero"/><path fill="#e2b83a" d="M 9.210938 8.417969 C 9.0625 8.367188 8.984375 8.601562 9.136719 8.652344 C 9.285156 8.699219 9.363281 8.464844 9.210938 8.417969 Z M 9.210938 8.417969 " fill-opacity="1" fill-rule="nonzero"/><path fill="#e2b83a" d="M 8.652344 8.699219 C 8.597656 8.589844 8.429688 8.675781 8.484375 8.785156 C 8.515625 8.832031 8.554688 8.84375 8.609375 8.820312 C 8.660156 8.792969 8.675781 8.753906 8.652344 8.699219 Z M 8.652344 8.699219 " fill-opacity="1" fill-rule="nonzero"/><path fill="#e2b83a" d="M 9.273438 9.855469 C 9.214844 9.835938 9.175781 9.855469 9.15625 9.914062 C 9.132812 9.972656 9.152344 10.015625 9.210938 10.035156 C 9.273438 10.054688 9.3125 10.035156 9.332031 9.976562 C 9.351562 9.917969 9.332031 9.878906 9.273438 9.855469 Z M 9.273438 9.855469 " fill-opacity="1" fill-rule="nonzero"/><path fill="#e2b83a" d="M 11.265625 8.160156 C 11.324219 8.179688 11.363281 8.160156 11.382812 8.101562 C 11.40625 8.039062 11.386719 8 11.324219 7.980469 C 11.265625 7.960938 11.226562 7.980469 11.207031 8.039062 C 11.1875 8.097656 11.207031 8.136719 11.265625 8.160156 Z M 11.265625 8.160156 " fill-opacity="1" fill-rule="nonzero"/><path fill="#e2b83a" d="M 8.785156 12.960938 C 8.738281 12.953125 8.707031 12.96875 8.691406 13.015625 C 8.675781 13.058594 8.691406 13.09375 8.734375 13.109375 C 8.78125 13.121094 8.8125 13.105469 8.828125 13.058594 C 8.84375 13.015625 8.828125 12.980469 8.785156 12.960938 Z M 8.785156 12.960938 " fill-opacity="1" fill-rule="nonzero"/><path fill="#e2b83a" d="M 10.660156 8.359375 C 10.710938 8.359375 10.742188 8.332031 10.75 8.28125 C 10.757812 8.226562 10.738281 8.195312 10.6875 8.175781 C 10.550781 8.136719 10.515625 8.359375 10.660156 8.359375 Z M 10.660156 8.359375 " fill-opacity="1" fill-rule="nonzero"/><path fill="#e2b83a" d="M 8.445312 9.472656 C 8.425781 9.53125 8.445312 9.570312 8.503906 9.589844 C 8.5625 9.609375 8.601562 9.589844 8.621094 9.53125 C 8.664062 9.414062 8.480469 9.355469 8.445312 9.472656 Z M 8.445312 9.472656 " fill-opacity="1" fill-rule="nonzero"/><path fill="#e2b83a" d="M 10.085938 8.046875 C 9.972656 8.003906 9.910156 8.1875 10.023438 8.222656 C 10.140625 8.257812 10.203125 8.078125 10.085938 8.046875 Z M 10.085938 8.046875 " fill-opacity="1" fill-rule="nonzero"/><path fill="#e2b83a" d="M 9.003906 11.121094 C 8.945312 11.101562 8.90625 11.121094 8.882812 11.179688 C 8.863281 11.242188 8.882812 11.28125 8.945312 11.300781 C 9.003906 11.320312 9.046875 11.300781 9.066406 11.242188 C 9.085938 11.179688 9.066406 11.140625 9.003906 11.121094 Z M 9.003906 11.121094 " fill-opacity="1" fill-rule="nonzero"/><path fill="#e2b83a" d="M 8.859375 11.742188 C 8.871094 11.683594 8.851562 11.648438 8.796875 11.628906 C 8.742188 11.613281 8.703125 11.628906 8.679688 11.683594 C 8.667969 11.738281 8.6875 11.777344 8.742188 11.792969 C 8.796875 11.8125 8.835938 11.792969 8.859375 11.742188 Z M 8.859375 11.742188 " fill-opacity="1" fill-rule="nonzero"/><path fill="#e2b83a" d="M 8.308594 12.125 C 8.195312 12.082031 8.136719 12.261719 8.25 12.300781 C 8.363281 12.339844 8.425781 12.15625 8.308594 12.125 Z M 8.308594 12.125 " fill-opacity="1" fill-rule="nonzero"/></g></g></g></g></svg>